# xmcd CD database file
#
# Track frame offsets:
#	183
#	1713
#	21133
#	39008
#	53785
#	71733
#	88645
#	104020
#	121795
#	136898
#	152313
#	171733
#
# Disc length: 2546 seconds
#
# Revision: 0
# Processed by: cddbd v1.5.2PL0 Copyright (c) Steve Scherf et al.
# Submitted via: jetAudio 7
#
DISCID=8e09f00c
DTITLE=현진영 - 흐린 기억속의 그대
DYEAR=1900
DGENRE=Dance
TTITLE0=Intro
TTITLE1=흐린 기억속의 그대
TTITLE2=너에게만
TTITLE3=너는 왜
TTITLE4=봄비
TTITLE5=한동안 뜸했었지
TTITLE6=미인
TTITLE7=비틀거리는 세상
TTITLE8=난 깜짝 놀랄짓을 할거야
TTITLE9=떠나가지마
TTITLE10=흐린 기억속의 그대 (Original)
TTITLE11=흐린 기억속의 그대 (Intrumental)
EXTD=
EXTT0=
EXTT1=
EXTT2=
EXTT3=
EXTT4=
EXTT5=
EXTT6=
EXTT7=
EXTT8=
EXTT9=
EXTT10=
EXTT11=
PLAYORDER=
